<?xml version="1.0" encoding="utf-8"?>
<!-- Generator: Adobe Illustrator 16.0.0, SVG Export Plug-In . SVG Version: 6.00 Build 0)  -->
<!DOCTYPE svg PUBLIC "-//W3C//DTD SVG 1.1//EN" "http://www.w3.org/Graphics/SVG/1.1/DTD/svg11.dtd">
<svg version="1.1" id="Layer_1" xmlns="http://www.w3.org/2000/svg" xmlns:xlink="http://www.w3.org/1999/xlink" x="0px" y="0px"
	 width="140px" height="40px" viewBox="0 0 140 40" enable-background="new 0 0 140 40" xml:space="preserve">
<g>
	<g>
		<path fill="#005AA2" d="M133.776,38.681H6.188c-3.722,0-6.223-2.811-6.223-6.994V6.918c0-4.185,2.501-6.995,6.223-6.995h95.111
			v0.953H6.188c-3.265,0-5.375,2.372-5.375,6.042v24.77c0,3.671,2.111,6.043,5.375,6.043h127.589c3.266,0,5.376-2.372,5.376-6.043
			V6.918c0-3.669-2.11-6.043-5.376-6.043h-17.399v-0.953h17.399c3.724,0,6.224,2.811,6.224,6.995v24.77
			C140,35.87,137.5,38.681,133.776,38.681z"/>
	</g>
	<text transform="matrix(0.4929 0 0 1 2.0283 30.4893)" fill="#005AA2" font-family="'ArialMT'" font-size="30.2931">DDD - ASP - Practice</text>
</g>
</svg>
